<?xml version="1.0" encoding="iso-8859-1"?>
<!-- Generator: Adobe Illustrator 19.0.0, SVG Export Plug-In . SVG Version: 6.00 Build 0)  -->
<svg version="1.1" id="Capa_1" xmlns="http://www.w3.org/2000/svg" xmlns:xlink="http://www.w3.org/1999/xlink" x="0px" y="0px"
	 viewBox="0 0 512 512" style="enable-background:new 0 0 512 512;" xml:space="preserve">
<path style="fill:#3B72C7;" d="M497.212,320.208l-39.399-22.748C460.594,283.858,462,269.959,462,256s-1.406-27.858-4.188-41.461
	l39.399-22.748c3.445-1.989,5.959-5.265,6.989-9.108c1.029-3.843,0.49-7.937-1.499-11.382l-50-86.603
	c-4.143-7.175-13.316-9.631-20.49-5.49l-39.43,22.765C371.89,83.417,347.415,69.273,321,60.487V15c0-8.284-6.716-15-15-15H206
	c-8.284,0-15,6.716-15,15v45.487c-26.415,8.786-50.89,22.931-71.782,41.486l-39.43-22.765c-3.446-1.99-7.539-2.529-11.382-1.499
	c-3.843,1.029-7.119,3.543-9.108,6.989l-50,86.603c-1.989,3.445-2.528,7.54-1.499,11.382c1.029,3.843,3.543,7.119,6.989,9.108
	l39.4,22.748C51.406,228.142,50,242.041,50,256c0,13.959,1.406,27.858,4.188,41.461l-39.4,22.748
	c-3.445,1.989-5.959,5.265-6.989,9.108s-0.491,7.937,1.499,11.382l50,86.603c1.989,3.445,5.265,5.959,9.108,6.989
	s7.938,0.491,11.382-1.499l39.43-22.765c20.893,18.556,45.368,32.701,71.782,41.486V497c0,8.284,6.716,15,15,15h100
	c8.284,0,15-6.716,15-15v-45.487c26.415-8.786,50.89-22.931,71.782-41.486l39.43,22.765c7.173,4.143,16.348,1.684,20.49-5.49
	l50-86.603c1.989-3.445,2.528-7.54,1.499-11.382C503.171,325.474,500.657,322.197,497.212,320.208z M181,161
	c11.046,0,20,8.954,20,20s-8.954,20-20,20s-20-8.954-20-20S169.954,161,181,161z M181,351c-11.046,0-20-8.954-20-20s8.954-20,20-20
	s20,8.954,20,20S192.046,351,181,351z M256,311c-30.327,0-55-24.673-55-55s24.673-55,55-55s55,24.673,55,55S286.327,311,256,311z
	 M331,351c-11.046,0-20-8.954-20-20s8.954-20,20-20s20,8.954,20,20S342.046,351,331,351z M331,201c-11.046,0-20-8.954-20-20
	s8.954-20,20-20s20,8.954,20,20S342.046,201,331,201z"/>
<path style="fill:#3949AB;" d="M497.212,320.208l-39.399-22.748C460.594,283.858,462,269.959,462,256s-1.406-27.858-4.188-41.461
	l39.399-22.748c3.445-1.989,5.959-5.265,6.989-9.108c1.029-3.843,0.49-7.937-1.499-11.382l-50-86.603
	c-4.143-7.175-13.316-9.631-20.49-5.49l-39.43,22.765C371.89,83.417,347.415,69.273,321,60.487V15c0-8.284-6.716-15-15-15h-50v201
	c30.327,0,55,24.673,55,55s-24.673,55-55,55v201h50c8.284,0,15-6.716,15-15v-45.487c26.415-8.786,50.89-22.931,71.782-41.486
	l39.43,22.765c7.173,4.143,16.348,1.684,20.49-5.49l50-86.603c1.989-3.445,2.528-7.54,1.499-11.382
	C503.171,325.474,500.657,322.197,497.212,320.208z M331,351c-11.046,0-20-8.954-20-20s8.954-20,20-20s20,8.954,20,20
	S342.046,351,331,351z M331,201c-11.046,0-20-8.954-20-20s8.954-20,20-20s20,8.954,20,20S342.046,201,331,201z"/>
<g>
</g>
<g>
</g>
<g>
</g>
<g>
</g>
<g>
</g>
<g>
</g>
<g>
</g>
<g>
</g>
<g>
</g>
<g>
</g>
<g>
</g>
<g>
</g>
<g>
</g>
<g>
</g>
<g>
</g>
</svg>
