<svg xmlns="http://www.w3.org/2000/svg" height="512pt" version="1.1" viewBox="0 -55 512.00002 512" width="512pt">
<g id="surface1">
<path d="M 0 0 L 0 401.023438 L 512 401.023438 L 512 0 Z M 482.996094 360.667969 C 482.996094 366.21875 478.457031 370.757812 472.90625 370.757812 L 40.355469 370.757812 C 34.804688 370.757812 30.265625 366.21875 30.265625 360.667969 L 30.265625 40.355469 C 30.265625 34.804688 34.804688 30.265625 40.355469 30.265625 L 472.90625 30.265625 C 478.453125 30.265625 482.996094 34.804688 482.996094 40.355469 Z M 482.996094 360.667969 " style=" stroke:none;fill-rule:nonzero;fill:rgb(0%,0%,0%);fill-opacity:1;" />
<path d="M 258.773438 182.476562 C 275.925781 182.476562 289.796875 168.480469 289.796875 151.457031 C 289.796875 134.304688 275.796875 120.433594 258.773438 120.433594 C 241.625 120.433594 227.75 134.429688 227.75 151.457031 C 227.625 168.480469 241.625 182.476562 258.773438 182.476562 Z M 258.773438 182.476562 " style=" stroke:none;fill-rule:nonzero;fill:rgb(0%,0%,0%);fill-opacity:1;" />
<path d="M 348.941406 229.894531 L 288.15625 281.222656 C 275.292969 292.066406 256.503906 292.320312 243.390625 281.851562 L 155.996094 211.988281 C 150.195312 207.449219 142.125 207.574219 136.703125 212.492188 L 50.445312 288.789062 L 50.445312 350.582031 L 461.554688 350.582031 L 461.554688 302.910156 L 367.859375 229.644531 C 362.183594 225.230469 354.492188 225.355469 348.941406 229.894531 Z M 348.941406 229.894531 " style=" stroke:none;fill-rule:nonzero;fill:rgb(0%,0%,0%);fill-opacity:1;" />
<path d="M 50.445312 261.925781 L 123.332031 197.359375 C 136.195312 186.011719 155.113281 185.503906 168.480469 196.222656 L 256 266.089844 C 261.675781 270.628906 269.621094 270.503906 275.167969 265.835938 L 335.828125 214.507812 C 348.5625 203.789062 367.101562 203.410156 380.214844 213.625 L 461.554688 277.3125 L 461.554688 50.445312 L 50.445312 50.445312 Z M 258.773438 100.128906 C 287.023438 100.128906 309.972656 123.082031 309.972656 151.332031 C 309.972656 179.578125 287.023438 202.53125 258.773438 202.53125 C 230.523438 202.53125 207.574219 179.578125 207.574219 151.332031 C 207.574219 123.082031 230.527344 100.128906 258.773438 100.128906 Z M 258.773438 100.128906 " style=" stroke:none;fill-rule:nonzero;fill:rgb(0%,0%,0%);fill-opacity:1;" />
</g>
</svg>