<svg height="512" viewBox="0 0 54 60" width="512" xmlns="http://www.w3.org/2000/svg"><g id="007---Male-User" fill="none"><g id="Icons" transform="translate(1 1)"><path id="Shape" d="m51.93 53.02c-2.4087931 1.3759883-5.0114239 2.3806308-7.72 2.98-5.9685336 1.3904098-12.0819654 2.0618466-18.21 2-.5 0-1 0-1.5-.01-5.6269632-.0352173-11.232143-.7027402-16.71-1.99-2.70857611-.5993692-5.31120691-1.6040117-7.72-2.98.18-.09.34-.17.49-.25 1.43-.77 2.86-1.54 4.26-2.34 1.55597983-.9789441 3.27218286-1.6762574 5.07-2.06 1.0526243-.2231509 2.0622937-.6148622 2.99-1.16 1.8245248-1.2535306 3.5375389-2.6620832 5.12-4.21v-6.68c2.9 2.92 3.07 5.68 6.3 5.68h3.4c1.3409361.0363279 2.5992015-.6461858 3.3-1.79.8964806-1.3733044 1.8995729-2.6739808 3-3.89v6.68c1.5824611 1.5479168 3.2954752 2.9564694 5.12 4.21.9277063.5451378 1.9373757.9368491 2.99 1.16 1.7978171.3837426 3.5140202 1.0810559 5.07 2.06 1.4.8 2.83 1.57 4.26 2.34.15.08.31.16.49.25z" fill="#dfc49c"/><path id="Shape" d="m48.93 53.02c-2.4087931 1.3759883-5.0114239 2.3806308-7.72 2.98-5.477857 1.2872598-11.0830368 1.9547827-16.71 1.99-5.6269632-.0352173-11.232143-.7027402-16.71-1.99-2.70857611-.5993692-5.31120691-1.6040117-7.72-2.98.18-.09.34-.17.49-.25 1.43-.77 2.86-1.54 4.26-2.34 1.55597983-.9789441 3.27218286-1.6762574 5.07-2.06 1.0526243-.2231509 2.0622937-.6148622 2.99-1.16 1.8245248-1.2535306 3.5375389-2.6620832 5.12-4.21v-6.68c2.9 2.92 3.07 5.68 6.3 5.68h3.4c1.3409361.0363279 2.5992015-.6461858 3.3-1.79v2.79c1.5824611 1.5479168 3.2954752 2.9564694 5.12 4.21.9277063.5451378 1.9373757.9368491 2.99 1.16 1.7978171.3837426 3.5140202 1.0810559 5.07 2.06 1.4.8 2.83 1.57 4.26 2.34.15.08.31.16.49.25z" fill="#ffe0b2"/><path id="Shape" d="m51.93 53.02c-1.275448.7669024-2.6299626 1.3938683-4.04 1.87-1.2059459.4355068-2.434376.8060386-3.68 1.11-3.5778155.8633987-7.2197485 1.4352725-10.89 1.71 3.93-1.22 5.56-5.21 6.22-7.96.1734573-.6979775.3037045-1.405988.39-2.12.6928161.3369715 1.4252155.5855841 2.18.74 1.7978171.3837426 3.5140202 1.0810559 5.07 2.06 1.4.8 2.83 1.57 4.26 2.34.15.08.31.16.49.25z" fill="#6a1b9a"/><path id="Shape" d="m48.93 54.31c-.3362319.2114776-.6833804.4050797-1.04.58-1.2059459.4355068-2.434376.8060386-3.68 1.11-3.5778155.8633987-7.2197485 1.4352725-10.89 1.71 3.93-1.22 5.56-5.21 6.22-7.96 1.6404843.4090411 3.2063273 1.0738494 4.64 1.97 1.4.8 2.83 1.57 4.26 2.34.15.08.31.16.49.25z" fill="#9d27b0"/><path id="Shape" d="m18.68 57.71c-3.6702515-.2747275-7.3121845-.8466013-10.89-1.71-2.70857611-.5993692-5.31120691-1.6040117-7.72-2.98.18-.09.34-.17.49-.25 1.43-.77 2.86-1.54 4.26-2.34 1.55597983-.9789441 3.27218286-1.6762574 5.07-2.06.7547845-.1544159 1.4871839-.4030285 2.18-.74.24 2.04 1.43 8.47 6.61 10.08z" fill="#9d27b0"/><path id="Shape" d="m42 13c0 5-2 7-2 7-.1051064-.0232865-.2136447-.0266783-.32-.01-.6668009-.0420145-1.3192819.2058554-1.79.68.1419243-2.1374412.1486043-4.281716.02-6.42-.0511767-1.5682318-.5207239-3.0942603-1.36-4.42-.7882915.5728287-1.6821153.9840556-2.63 1.21-3.341.99-10.858 1.131-13.07.85-1.9305043-.1933237-3.7538957-.9792683-5.22-2.25h-.06c-.7011776 1.0167396-1.1627441 2.1792033-1.35 3.4-.2563797 2.5455468-.2898403 5.1086278-.1 7.66-.4569738-.5036587-1.122244-.7660709-1.8-.71-.1063553-.0166783-.2148936-.0132865-.32.01 0 0-2-2-2-7 0-4.31 2.27-5.97 4.02-6.6l23.98.01c1.74.64 4 2.3 4 6.59z" fill="#91562d"/><path id="Shape" d="m38 6.41h-3c1.74.64 4 2.3 4 6.59.0475246 1.849013-.2963242 3.6871899-1.009 5.394-.014.863-.05 1.617-.1 2.276.4707181-.4741446 1.1231991-.7220145 1.79-.68.1060288-.0165524.2142161-.0131609.319.01 0 0 2-2 2-7 0-4.29-2.26-5.95-4-6.59z" fill="#6d4122"/><path id="Shape" d="m14.12 20.71c0 1.94.82 4.13.82 6.31 0 1.01-.09 1.97-.09 2.9-2.0576522-.7917401-3.4930782-2.6759786-3.71-4.87 0 0-.83-4.16.56-4.97.1941453-.0875213.4089828-.1187074.62-.09.677756-.0560709 1.3430262.2063413 1.8.71z" fill="#ffe0b2"/><path id="Shape" d="m40.86 25.05c-.2119372 2.1959788-1.649137 4.0825458-3.71 4.87 0-.93-.09-1.89-.09-2.9 0-2.1.58-3.17.83-6.35.4707181-.4741446 1.1231991-.7220145 1.79-.68.2110172-.0287074.4258547.0024787.62.09 1.4.81.56 4.97.56 4.97z" fill="#ffe0b2"/><g fill="#dfc49c"><path id="Shape" d="m37.06 27.02c0 3.124.832 5.738-2.55 8.81-3.4 3.09-3.4 6.17-6.81 6.17h-3.4c-3.41 0-3.41-3.08-6.81-6.17-3.377-3.068-2.55-5.678-2.55-8.81 0-2.176-.82-4.384-.82-6.32-.1515278-2.1470122-.1615495-4.3016711-.03-6.45.0429923-1.1885294.3181635-2.3571577.81-3.44.1929238-.4202051.4238864-.82187905.69-1.2 1.9431272 1.6464364 4.4355098 2.4998453 6.98 2.39 2.88 0 11.15.12 13.98-2.17.8359677 1.3272604 1.3052323 2.8523703 1.36 4.42.431 8.811-.85 9.663-.85 12.77z"/><path id="Shape" d="m15.24 10.16c.0945756-.17193973.1980493-.33883282.31-.5-.11.16-.21.33-.31.5z"/><path id="Shape" d="m15.62 9.64h-.05c.03-.026.002-.048.05 0z"/></g><path id="Shape" d="m34.06 27.02c0 3.124.832 5.738-2.55 8.81-3.4 3.09-3.4 6.17-6.81 6.17h-.4c-3.41 0-3.41-3.08-6.81-6.17-3.377-3.068-2.55-5.678-2.55-8.81 0-2.176-.82-4.384-.82-6.32-.1515278-2.1470122-.1615495-4.3016711-.03-6.45.047677-1.6456673.5608441-3.2441134 1.48-4.61h.06c1.9396876 1.6217441 4.4137741 2.4630761 6.94 2.36 2.28 0 7.93.08 11.59-1.02.4575749 1.0317552.7122099 2.1419639.75 3.27.431 8.811-.85 9.663-.85 12.77z" fill="#ffe0b2"/><path id="Shape" d="m37.31 8.92c-1.58 3.23-11.52 3.08-14.74 3.08-.13 0-.26 0-.39-.01h-.01c-4.14-.12-8.17-2.2-8.17-6.05-.0223611-1.55636795.3165159-3.09671801.99-4.5.2504716-.52053593.5700198-1.00490376.95-1.44 1.7440805 1.57266997 4.0115908 2.43903004 6.36 2.43.01.01.03 0 .05 0 2.4990089.05838224 4.9989521-.06527805 7.48-.37.6-.05 1.16-.08 1.65-.08 3.89 0 8.23 2.02 5.83 6.94z" fill="#a0522d"/><path id="Shape" d="m31.48 1.98c-.49 0-1.05.03-1.65.08h-.026c3.46.415 6.635 2.493 4.506 6.858-1.267 2.591-7.909 3.006-12.151 3.069h.021c.13.01.26.01.39.01 3.22 0 13.16.15 14.74-3.08 2.4-4.917-1.94-6.937-5.83-6.937z" fill="#783e22"/></g><path id="Shape" d="m.54 54.868c4.883 3.056 13.384 4.379 19.148 4.841 9.433.757 25.847.118 33.772-4.841.3070186-.1916774.4865006-.5342927.4692848-.8958231-.0172157-.3615304-.2284418-.6855405-.5522848-.8471769-.842-.418-3.421-1.832-4.694-2.559-6.673-3.888-5.333-.081-12.683-7v-5.815c1.9-1.8 3.006-3.379 3.134-6.157 2.0784604-1.0489315 3.4797003-3.0840837 3.718-5.4.207-1.048.654-3.987-.449-5.437 1.1371275-2.0651074 1.6892863-4.4013237 1.597-6.757 0-4.51-2.315-6.45-4.049-7.272-.415-3.361-4.127-4.747-7.468-4.747-3.92 0-11.326 1.89-14.827-1.681-.398204-.38390834-1.028796-.38390834-1.427 0-1.4895428 1.80974192-2.2766691 4.09585185-2.217 6.439-1.737.83-4.012 2.772-4.012 7.261-.0910148 2.355921.4621631 4.6920606 1.6 6.757-1.1 1.451-.653 4.389-.45 5.435.2422542 2.3144584 1.6423125 4.3478944 3.718 5.4.126 2.749 1.21 4.336 3.134 6.159v5.819c-7.39 6.954-5.964 3.081-12.676 6.992-1.275.728-3.882 2.156-4.7 2.563-.3241917.1610556-.53603275.48474-.55387188.8462935-.01783912.3615535.16110924.7045195.46787188.8967065zm47.144-2.568c1.031.59 2.078 1.164 3.129 1.732-3.9680213 1.6672417-8.155231 2.7550473-12.433 3.23 1.7506447-2.0645115 2.9062902-4.5666241 3.343-7.238 1.728.589 2.525.276 5.961 2.276zm-6.8-26.445c-.0082484.0416111-.0139258.0836908-.017.126-.1400326 1.2864472-.7721118 2.4689084-1.764 3.3-.147-3.22.418-3.613.743-7.063.3034433-.1801199.6572463-.2566368 1.008-.218.297.392.371 2.133.026 3.853zm1.116-11.855c.1167452 2.1038186-.4013168 4.1941832-1.487 6-.1812205.0087291-.3616371.0297777-.54.063.045-1.425.026-3.026-.064-4.866-.0625394-1.4644702-.4462623-2.8972863-1.124-4.197.4566623-.6232023.7850134-1.33089053.966-2.082 1.485.99 2.249 2.682 2.249 5.082zm-24.892-11.529c4.43 3.325 11.777 1.51 15.375 1.51 2.37 0 4.391.785 5.149 2 .555.887.48 2.064-.22 3.5-.1285793.23436259-.301047.44179917-.508.611-2.304 1.908-10.304 1.908-13.333 1.908-3.762 0-7.571-1.736-7.571-5.055-.0366134-1.5634964.3459602-3.10829254 1.108-4.474zm-2.791 6.392c.2282195.68381905.5804274 1.3197592 1.039 1.876-.7708276 1.3650748-1.2045225 2.8944922-1.265 4.461-.09 1.853-.108 3.454-.062 4.866-.1785303-.0348628-.3593244-.056919-.541-.066-1.0863207-1.8055876-1.6047553-3.8960496-1.488-6 0-2.86 1.105-4.351 2.317-5.137zm-1.179 17.118c-.0029818-.0423761-.0089972-.084484-.018-.126-.36-1.819-.255-3.671.051-3.876.3406868-.0145375.6797891.0541067.988.2.322 3.574.9 3.744.742 7.092-.9879572-.829898-1.619143-2.0077772-1.763-3.29zm3.712 4.942c0-.891.09-1.879.09-2.9 0-3.232-1.27-4.075-.851-12.723.0387853-1.1041354.3039299-2.1885394.779-3.186 2.1936934 1.3729957 4.7591823 2.0319242 7.343 1.886 4.967 0 10.092-.26 12.978-1.76.4358537.9635073.6810322 2.0022899.722 3.059.2683237 3.2411371.100154 6.5036298-.5 9.7-.3358435 1.503718-.4370402 3.0503408-.3 4.585.123 2.7.061 4.387-2.27 6.5-3.397 3.089-3.424 5.916-6.141 5.916-4.747 0-4.7.414-6.6-2.375-.7172304-1.0938929-1.5380094-2.1162667-2.451-3.053-1.799-1.795-2.807-2.731-2.799-5.649zm1.15 15.355v1.722c0 .5522847.4477153 1 1 1s1-.4477153 1-1v-7.893c1.474 2.093 2.413 3.893 5.3 3.893 5.5 0 5.659.436 8.7-3.893v7.893c0 .5522847.4477153 1 1 1s1-.4477153 1-1v-1.722c1.1736997 1.1041194 2.4612404 2.0805855 3.841 2.913-.366 2.282-1.617 7.175-5.708 8.527-4.7442482.3754996-9.5107518.3754996-14.255 0-4.1-1.348-5.353-6.244-5.718-8.528 1.3792034-.8323953 2.6663807-1.8085048 3.84-2.912zm-11.677 6.016c3.413-1.987 4.24-1.685 5.954-2.27.4371469 2.6712419 1.5927407 5.1732426 3.343 7.238-4.2777735-.476111-8.46491335-1.564572-12.433-3.232 1.052-.568 2.09733333-1.1466667 3.136-1.736z" fill="#000"/></g></svg>