<?xml version="1.0" encoding="iso-8859-1"?>
<!-- Generator: Adobe Illustrator 19.0.0, SVG Export Plug-In . SVG Version: 6.00 Build 0)  -->
<svg version="1.1" id="Layer_1" xmlns="http://www.w3.org/2000/svg" xmlns:xlink="http://www.w3.org/1999/xlink" x="0px" y="0px"
	 viewBox="0 0 512.001 512.001" style="enable-background:new 0 0 512.001 512.001;" xml:space="preserve">
<g>
	<g>
		<g>
			<path d="M437.02,74.98C388.668,26.629,324.381,0,256.001,0S123.333,26.629,74.981,74.98C26.63,123.332,0.001,187.62,0.001,256
				s26.629,132.668,74.98,181.02c0.031,0.031,0.063,0.061,0.094,0.092c1.146,1.148,2.313,2.271,3.478,3.395
				c0.389,0.375,0.772,0.756,1.163,1.128c1.286,1.225,2.589,2.427,3.897,3.622c0.288,0.263,0.573,0.529,0.861,0.79
				c1.337,1.21,2.688,2.402,4.047,3.582c0.274,0.237,0.547,0.476,0.822,0.712c1.37,1.178,2.75,2.341,4.142,3.488
				c0.274,0.226,0.549,0.45,0.824,0.675c1.4,1.145,2.809,2.277,4.231,3.39c0.264,0.207,0.532,0.41,0.797,0.616
				c1.445,1.122,2.897,2.235,4.364,3.324c0.183,0.136,0.368,0.267,0.551,0.402c4.039,2.982,8.16,5.836,12.355,8.566
				c1.03,0.672,2.058,1.347,3.097,2.003c0.693,0.437,1.393,0.86,2.09,1.29c1.285,0.794,2.572,1.582,3.869,2.352
				c0.566,0.335,1.135,0.663,1.703,0.994c1.48,0.863,2.967,1.713,4.463,2.545c0.425,0.236,0.851,0.47,1.278,0.704
				c1.719,0.944,3.449,1.866,5.188,2.769c0.225,0.116,0.449,0.234,0.674,0.35c25.152,12.956,52.341,21.627,80.66,25.631
				c0.212,0.03,0.425,0.057,0.637,0.086c2.016,0.28,4.038,0.537,6.066,0.769c0.507,0.059,1.016,0.113,1.523,0.168
				c1.742,0.189,3.487,0.361,5.236,0.515c0.657,0.058,1.314,0.116,1.972,0.169c1.626,0.131,3.256,0.243,4.888,0.343
				c0.72,0.044,1.44,0.093,2.161,0.132c1.65,0.088,3.305,0.152,4.961,0.208c0.669,0.023,1.337,0.056,2.007,0.074
				c2.302,0.061,4.607,0.097,6.919,0.097c2.311,0,4.617-0.036,6.918-0.097c0.67-0.018,1.338-0.051,2.007-0.074
				c1.656-0.056,3.311-0.121,4.961-0.208c0.721-0.039,1.441-0.087,2.161-0.132c1.632-0.1,3.262-0.212,4.888-0.343
				c0.658-0.053,1.315-0.111,1.972-0.169c1.749-0.154,3.494-0.326,5.236-0.515c0.508-0.055,1.016-0.11,1.523-0.168
				c2.028-0.232,4.049-0.489,6.066-0.769c0.212-0.03,0.425-0.056,0.637-0.086c28.32-4.004,55.508-12.675,80.66-25.631
				c0.225-0.116,0.45-0.234,0.674-0.35c1.739-0.903,3.469-1.825,5.188-2.769c0.426-0.233,0.853-0.468,1.278-0.704
				c1.496-0.832,2.983-1.682,4.463-2.545c0.568-0.331,1.138-0.659,1.703-0.994c1.297-0.77,2.585-1.558,3.869-2.352
				c0.697-0.43,1.397-0.853,2.09-1.29c1.039-0.656,2.067-1.332,3.097-2.003c4.195-2.73,8.316-5.584,12.355-8.566
				c0.183-0.135,0.369-0.266,0.551-0.402c1.468-1.09,2.92-2.203,4.366-3.326c0.264-0.205,0.53-0.407,0.793-0.613
				c1.423-1.114,2.832-2.247,4.233-3.392c0.274-0.224,0.549-0.448,0.822-0.673c1.392-1.147,2.773-2.31,4.142-3.489
				c0.275-0.236,0.548-0.475,0.822-0.712c1.359-1.18,2.71-2.371,4.047-3.582c0.289-0.261,0.574-0.527,0.861-0.79
				c1.308-1.195,2.611-2.397,3.897-3.622c0.391-0.372,0.775-0.754,1.164-1.128c1.165-1.124,2.332-2.247,3.478-3.395
				c0.031-0.031,0.063-0.061,0.094-0.092c48.357-48.352,74.986-112.64,74.986-181.02S485.372,123.332,437.02,74.98z
				 M293.083,494.147c-0.295,0.045-0.59,0.091-0.885,0.135c-1.61,0.243-3.225,0.468-4.845,0.68c-0.593,0.077-1.187,0.15-1.781,0.222
				c-1.399,0.172-2.801,0.334-4.207,0.482c-0.834,0.087-1.671,0.164-2.507,0.243c-1.219,0.115-2.438,0.229-3.662,0.326
				c-1.055,0.083-2.113,0.149-3.171,0.219c-1.044,0.069-2.086,0.144-3.134,0.199c-1.323,0.07-2.65,0.116-3.977,0.165
				c-0.81,0.03-1.617,0.071-2.429,0.092c-2.156,0.058-4.318,0.09-6.484,0.09s-4.328-0.032-6.485-0.089
				c-0.812-0.021-1.619-0.063-2.429-0.092c-1.327-0.048-2.654-0.095-3.977-0.165c-1.048-0.055-2.09-0.13-3.134-0.199
				c-1.058-0.07-2.116-0.136-3.171-0.219c-1.224-0.097-2.443-0.211-3.662-0.326c-0.836-0.079-1.673-0.156-2.507-0.243
				c-1.406-0.148-2.808-0.311-4.206-0.482c-0.594-0.073-1.188-0.145-1.781-0.222c-1.62-0.211-3.235-0.437-4.845-0.68
				c-0.295-0.044-0.59-0.09-0.885-0.135c-59.613-9.246-112.075-40.414-148.854-84.984C90.862,324.538,168.457,263.5,256.001,263.5
				s165.139,61.038,185.936,145.663C405.158,453.733,352.696,484.901,293.083,494.147z M346.645,173.826
				c-8.272,42.493-45.768,74.67-90.645,74.67c-50.922,0-92.35-41.428-92.35-92.35c0.001-4.313,0.305-8.555,0.88-12.713
				C190.504,156.851,242.529,171.052,346.645,173.826z M167.969,128.232c9.11-28.67,31.863-51.319,60.6-60.276
				c1.27-0.396,2.553-0.76,3.846-1.102c0.213-0.056,0.424-0.116,0.638-0.17c0.566-0.145,1.135-0.282,1.705-0.417
				c0.562-0.132,1.126-0.258,1.691-0.38c0.595-0.129,1.192-0.252,1.792-0.369c0.729-0.142,1.461-0.277,2.196-0.402
				c0.362-0.062,0.724-0.123,1.087-0.181c0.988-0.156,1.981-0.299,2.978-0.423c0.25-0.031,0.501-0.057,0.752-0.086
				c0.925-0.107,1.854-0.202,2.787-0.282c0.202-0.017,0.403-0.038,0.606-0.054c1.076-0.085,2.158-0.149,3.243-0.197
				c0.245-0.011,0.492-0.019,0.738-0.028c1.121-0.04,2.245-0.068,3.374-0.068c50.922,0,92.35,41.428,92.35,92.35
				c0,0.86-0.014,1.721-0.038,2.585c-0.001,0.046-0.004,0.091-0.005,0.137C235.773,155.977,187.841,139.59,167.969,128.232z
				 M385.852,294.445c-24.746-20.045-53.861-33.987-84.71-40.915c31.47-14.647,54.704-44.106,60.688-79.366l0.236,0.005l0.709-6.867
				c0.004-0.039,0.007-0.078,0.011-0.116c0.061-0.596,0.111-1.196,0.162-1.795c0.026-0.303,0.057-0.603,0.081-0.907
				c0.212-2.751,0.322-5.531,0.322-8.336c0-59.192-48.157-107.35-107.35-107.35c-1.384,0-2.76,0.035-4.131,0.087
				c-0.259,0.01-0.519,0.018-0.777,0.03c-1.311,0.059-2.615,0.142-3.913,0.248c-0.278,0.023-0.555,0.049-0.832,0.074
				c-1.262,0.113-2.519,0.242-3.768,0.399c-0.167,0.021-0.335,0.043-0.502,0.064c-1.174,0.153-2.341,0.329-3.503,0.52
				c-0.389,0.063-0.778,0.126-1.166,0.194c-1.113,0.195-2.221,0.407-3.322,0.636c-0.519,0.108-1.034,0.223-1.55,0.338
				c-0.695,0.155-1.387,0.319-2.077,0.488c-1.015,0.248-2.024,0.512-3.029,0.788c-0.377,0.104-0.754,0.207-1.129,0.315
				c-33.979,9.746-61.531,35.858-72.554,70.472c-0.101,0.315-0.206,0.629-0.304,0.946c-0.196,0.635-0.385,1.272-0.57,1.912
				c-0.294,1.014-0.578,2.033-0.842,3.059c-0.035,0.135-0.076,0.267-0.111,0.402l-1.289,5.099l0.124,0.084
				c-1.378,6.854-2.106,13.941-2.106,21.195c0,43.076,25.507,80.301,62.208,97.383c-30.849,6.928-59.964,20.87-84.71,40.915
				c-31.904,25.845-55.475,60.833-67.484,99.738C31.168,355.031,15.001,307.371,15.001,256c0-132.888,108.112-241,241-241
				s241,108.112,241,241c0,51.371-16.167,99.031-43.665,138.183C441.327,355.278,417.756,320.289,385.852,294.445z"/>
			<path d="M223.374,213.969c-3.654-2.07-7.132-4.503-10.337-7.23l-9.72,11.426c3.925,3.339,8.185,6.318,12.662,8.855
				L223.374,213.969z"/>
			<path d="M202.855,195.916c-5.675-7.561-9.596-16.045-11.655-25.215l-14.636,3.285c2.526,11.255,7.335,21.662,14.293,30.934
				L202.855,195.916z"/>
			<path d="M343.169,453.739l6.05,13.727c30.242-13.329,56.829-32.69,79.022-57.548l2.797-3.133l-1.209-4.022
				c-4.468-14.858-10.878-29.153-19.051-42.487l-12.789,7.838c6.759,11.027,12.202,22.767,16.21,34.95
				C394.03,424.809,370.154,441.847,343.169,453.739z"/>
			<path d="M306.346,466.118l3.474,14.592c6.203-1.477,12.41-3.23,18.45-5.213l-4.679-14.252
				C317.946,463.099,312.144,464.737,306.346,466.118z"/>
			<path d="M141.886,313.87c-28.116,22.777-49.322,54.347-59.712,88.893l-1.209,4.022l2.797,3.133
				c4.885,5.472,10.081,10.766,15.443,15.736l10.197-11c-3.986-3.695-7.874-7.582-11.596-11.592
				c9.927-30.116,28.816-57.522,53.521-77.536c0.685-0.554,1.372-1.103,2.063-1.645l-9.263-11.799
				C143.377,312.672,142.63,313.268,141.886,313.87z"/>
			<path d="M166.114,297.243l7.463,13.012c4.239-2.432,8.623-4.693,13.03-6.723l-6.275-13.625
				C175.521,292.123,170.738,294.591,166.114,297.243z"/>
		</g>
	</g>
</g>
<g>
</g>
<g>
</g>
<g>
</g>
<g>
</g>
<g>
</g>
<g>
</g>
<g>
</g>
<g>
</g>
<g>
</g>
<g>
</g>
<g>
</g>
<g>
</g>
<g>
</g>
<g>
</g>
<g>
</g>
</svg>
